<?xml version="1.0" standalone="no"?>
<!DOCTYPE svg PUBLIC "-//W3C//DTD SVG 20010904//EN"
 "http://www.w3.org/TR/2001/REC-SVG-20010904/DTD/svg10.dtd">
<svg version="1.0" xmlns="http://www.w3.org/2000/svg"
 width="199.000000pt" height="54.000000pt" viewBox="0 0 199.000000 54.000000"
 preserveAspectRatio="xMidYMid meet">

<g transform="translate(0.000000,54.000000) scale(0.100000,-0.100000)"
fill="#000000" stroke="none">
<path d="M0 270 l0 -270 294 0 294 0 -6 45 -5 46 27 -11 c30 -11 60 -1 69 24
3 8 -14 74 -38 145 l-44 131 55 0 c35 0 56 -5 59 -12 2 -7 12 -40 21 -73 l17
-60 25 73 26 72 53 0 c29 0 53 -3 53 -7 0 -4 -30 -77 -66 -163 -42 -98 -77
-165 -96 -182 l-28 -28 640 0 640 0 0 60 0 60 -64 0 c-61 0 -64 1 -76 30 -7
16 -16 30 -21 30 -5 0 -15 -14 -24 -30 -15 -29 -18 -30 -81 -30 l-66 0 26 35
c14 19 37 50 51 68 l24 33 -23 35 c-12 19 -31 46 -41 62 l-17 27 66 0 c61 0
67 -2 78 -25 6 -14 14 -25 18 -25 4 0 13 11 20 25 12 22 20 25 72 25 l58 0 0
80 0 80 -995 0 -995 0 0 -270z m433 194 c9 -3 17 -15 17 -27 0 -12 3 -33 7
-45 6 -24 5 -24 -53 -16 -77 10 -118 7 -154 -11 -61 -32 -80 -130 -36 -182
l24 -27 35 19 c29 15 42 17 64 9 25 -9 29 -7 38 15 9 20 7 28 -12 47 -27 27
-28 34 -9 59 13 19 15 19 53 1 l40 -18 7 -80 c9 -104 -2 -122 -81 -138 -73
-16 -187 -1 -237 29 -67 42 -96 155 -60 239 28 67 83 112 161 132 36 9 158 5
196 -6z m722 -88 c17 -12 24 -12 49 1 40 21 105 11 129 -19 15 -18 18 -32 13
-67 -3 -24 -6 -72 -6 -107 l0 -64 -56 0 -57 0 5 78 c6 86 3 102 -18 102 -21 0
-34 -43 -34 -116 l0 -64 -56 0 -57 0 6 75 c7 79 3 105 -18 105 -19 0 -35 -55
-35 -121 l0 -59 -56 0 -57 0 6 83 c4 45 7 103 7 130 l0 47 50 0 c28 0 50 -5
50 -11 0 -5 10 -3 22 5 28 20 88 21 113 2z m452 3 c15 -5 31 -16 35 -22 9 -15
10 -162 2 -206 -6 -30 -9 -31 -55 -31 l-49 0 0 50 c0 52 -7 58 -41 40 -27 -15
-24 -30 6 -30 28 0 30 -6 15 -44 -8 -23 -15 -26 -55 -26 -55 0 -95 32 -95 77
0 54 30 78 128 103 58 15 55 34 -5 27 -27 -2 -56 -8 -66 -12 -16 -7 -18 -3
-15 31 3 36 6 39 38 45 58 10 127 10 157 -2z"/>
<path d="M1947 308 l-37 -52 27 -45 c55 -96 53 -97 53 32 0 64 -2 117 -4 117
-2 0 -19 -23 -39 -52z"/>
</g>
</svg>
